<?xml version="1.0" encoding="UTF-8"?>
<svg version="1.1" xmlns="http://www.w3.org/2000/svg" width="512" height="512">
<path d="M0 0 C2.87269295 0.00916679 5.74457124 0.00230501 8.6171875 -0.02050781 C26.14825781 -0.15892182 42.94935667 0.56631081 60.13452148 4.44604492 C61.32907959 4.70281006 62.5236377 4.9595752 63.75439453 5.22412109 C66.4846717 5.84420283 69.18311754 6.52391815 71.88452148 7.25854492 C72.82803467 7.51152344 73.77154785 7.76450195 74.74365234 8.02514648 C111.01573659 18.01987674 145.08054952 36.36749422 173.13452148 61.44604492 C173.96725586 62.16920898 174.79999023 62.89237305 175.65795898 63.63745117 C186.74080042 73.37528758 197.08536305 83.78527274 206.13452148 95.44604492 C206.89764648 96.38061523 207.66077148 97.31518555 208.44702148 98.27807617 C232.44008868 128.23095974 248.41391548 164.52796132 256.50952148 201.88354492 C256.86747803 203.53277954 256.86747803 203.53277954 257.23266602 205.21533203 C260.47715753 221.01903203 261.48532095 236.44510403 261.45019531 252.5456543 C261.44704705 255.54667968 261.47055558 258.54670365 261.49584961 261.54760742 C261.55551764 279.54004645 259.8898465 297.40574152 255.44702148 314.88354492 C255.19138428 315.90955811 254.93574707 316.93557129 254.67236328 317.99267578 C245.86644331 352.34757487 231.12661174 384.49991459 209.13452148 412.44604492 C208.37655273 413.41541992 207.61858398 414.38479492 206.83764648 415.38354492 C194.51116353 430.76979315 180.69811374 445.3239794 165.13452148 457.44604492 C164.19866211 458.21045898 163.26280273 458.97487305 162.29858398 459.76245117 C117.91724041 495.30175329 61.73723249 512.93813822 5.32202148 512.82104492 C4.28783081 512.82016876 3.25364014 512.8192926 2.18811035 512.81838989 C-45.37893025 512.68579532 -91.53565611 499.97316098 -131.86547852 474.44604492 C-133.4780957 473.42897461 -133.4780957 473.42897461 -135.12329102 472.39135742 C-158.19602829 457.39106609 -180.19734192 438.39353155 -196.86547852 416.44604492 C-197.92895508 415.0905957 -197.92895508 415.0905957 -199.01391602 413.70776367 C-225.75412559 379.03931652 -243.04005727 338.68423197 -249.86547852 295.44604492 C-250.03982422 294.48666016 -250.21416992 293.52727539 -250.39379883 292.53881836 C-251.81162119 282.41735268 -251.17446061 271.89751969 -251.21557617 261.68505859 C-251.2287192 258.77131362 -251.25620162 255.85830213 -251.29760742 252.94482422 C-251.88657651 210.4866012 -241.99728635 170.95520802 -221.86547852 133.44604492 C-221.55288086 132.85952148 -221.2402832 132.27299805 -220.91821289 131.66870117 C-209.98662054 111.34453982 -195.84897947 93.02687385 -179.86547852 76.44604492 C-179.33132324 75.88997559 -178.79716797 75.33390625 -178.24682617 74.76098633 C-145.49403368 40.84018935 -102.12086359 16.85728884 -56.36547852 5.75854492 C-55.1939624 5.47297729 -55.1939624 5.47297729 -53.9987793 5.18164062 C-51.29625906 4.55506035 -48.5840452 3.99893301 -45.86547852 3.44604492 C-44.69976318 3.183479 -43.53404785 2.92091309 -42.33300781 2.65039062 C-28.36094281 -0.25777237 -14.20333329 -0.04745675 0 0 Z " fill="#FDFDFD" transform="translate(250.865478515625,-0.446044921875)"/>
<path d="M0 0 C1.2860393 0.47639314 2.57247666 0.95171356 3.859375 1.42578125 C30.32267217 11.50568522 55.12162506 26.68166376 75.859375 46.01171875 C77.77399406 47.79007842 79.73995368 49.45699938 81.75 51.125 C124.13611595 88.30879588 150.61995315 145.4563781 156 201 C156 203.31 156 205.62 156 208 C102.21 208 48.42 208 -7 208 C-8.98 202.72 -10.96 197.44 -13 192 C-25.38745886 170.68628402 -41.62105718 156.52919711 -65.5859375 149.54296875 C-88.85042676 144.31034091 -111.02534661 148.40939004 -131 161 C-147.69604494 172.70132945 -157.63409157 188.90227472 -164 208 C-217.79 208 -271.58 208 -327 208 C-327 150.96009385 -295.91038862 94.41370271 -256.6875 54.5 C-252.91338728 50.85039409 -249.01729563 47.37932887 -245 44 C-244.47470703 43.55027832 -243.94941406 43.10055664 -243.40820312 42.63720703 C-219.6601857 22.37266951 -192.52596492 7.12400278 -163 -3 C-161.86812256 -3.39674927 -161.86812256 -3.39674927 -160.71337891 -3.80151367 C-155.65618009 -5.54186508 -150.5933893 -6.90126502 -145.375 -8.0625 C-141.40423141 -8.95808096 -137.4738905 -9.85912822 -133.5703125 -11.01953125 C-91.45702573 -22.58455858 -39.95379504 -15.43174509 0 0 Z " fill="#FDFDFD" transform="translate(341,28)"/>
<path d="M0 0 C15.11187454 11.7282846 25.82933693 27.23201617 30 46 C84.12 46 138.24 46 194 46 C194 57.55 194 69.1 194 81 C140.21 81 86.42 81 31 81 C30.34 83.97 29.68 86.94 29 90 C22.26184575 109.91162435 9.12743279 127.29087788 -9.77734375 137.00390625 C-29.68608631 146.74420503 -51.89997332 149.81311139 -73.47265625 143.31640625 C-94.85406695 135.33685431 -112.27623473 120.91662848 -122 100 C-124.46329914 94.14483599 -126.45908244 88.16367023 -128 82 C-208.685 81.505 -208.685 81.505 -291 81 C-291 69.45 -291 57.9 -291 46 C-209.82 45.505 -209.82 45.505 -127 45 C-126.01 41.7 -125.02 38.4 -124 35 C-122.85335538 32.42912936 -121.71728902 30.01787396 -120.375 27.5625 C-120.02872559 26.92489746 -119.68245117 26.28729492 -119.32568359 25.63037109 C-109.31433168 7.77119433 -93.13089647 -5.01570446 -74 -12 C-73.21753906 -12.29777344 -72.43507812 -12.59554687 -71.62890625 -12.90234375 C-47.80618207 -20.40529171 -20.06892837 -13.88015985 0 0 Z " fill="#CC413C" transform="translate(304,190)"/>
<path d="M0 0 C2.87269295 0.00916679 5.74457124 0.00230501 8.6171875 -0.02050781 C26.14825781 -0.15892182 42.94935667 0.56631081 60.13452148 4.44604492 C61.32907959 4.70281006 62.5236377 4.9595752 63.75439453 5.22412109 C66.4846717 5.84420283 69.18311754 6.52391815 71.88452148 7.25854492 C72.82803467 7.51152344 73.77154785 7.76450195 74.74365234 8.02514648 C111.01573659 18.01987674 145.08054952 36.36749422 173.13452148 61.44604492 C173.96725586 62.16920898 174.79999023 62.89237305 175.65795898 63.63745117 C186.74080042 73.37528758 197.08536305 83.78527274 206.13452148 95.44604492 C206.89764648 96.38061523 207.66077148 97.31518555 208.44702148 98.27807617 C232.44008868 128.23095974 248.41391548 164.52796132 256.50952148 201.88354492 C256.86747803 203.53277954 256.86747803 203.53277954 257.23266602 205.21533203 C260.47715753 221.01903203 261.48532095 236.44510403 261.45019531 252.5456543 C261.44704705 255.54667968 261.47055558 258.54670365 261.49584961 261.54760742 C261.55551764 279.54004645 259.8898465 297.40574152 255.44702148 314.88354492 C255.19138428 315.90955811 254.93574707 316.93557129 254.67236328 317.99267578 C245.86644331 352.34757487 231.12661174 384.49991459 209.13452148 412.44604492 C208.37655273 413.41541992 207.61858398 414.38479492 206.83764648 415.38354492 C194.51116353 430.76979315 180.69811374 445.3239794 165.13452148 457.44604492 C164.19866211 458.21045898 163.26280273 458.97487305 162.29858398 459.76245117 C117.91724041 495.30175329 61.73723249 512.93813822 5.32202148 512.82104492 C4.28783081 512.82016876 3.25364014 512.8192926 2.18811035 512.81838989 C-45.37893025 512.68579532 -91.53565611 499.97316098 -131.86547852 474.44604492 C-133.4780957 473.42897461 -133.4780957 473.42897461 -135.12329102 472.39135742 C-158.19602829 457.39106609 -180.19734192 438.39353155 -196.86547852 416.44604492 C-197.92895508 415.0905957 -197.92895508 415.0905957 -199.01391602 413.70776367 C-225.75412559 379.03931652 -243.04005727 338.68423197 -249.86547852 295.44604492 C-250.03982422 294.48666016 -250.21416992 293.52727539 -250.39379883 292.53881836 C-251.81162119 282.41735268 -251.17446061 271.89751969 -251.21557617 261.68505859 C-251.2287192 258.77131362 -251.25620162 255.85830213 -251.29760742 252.94482422 C-251.88657651 210.4866012 -241.99728635 170.95520802 -221.86547852 133.44604492 C-221.55288086 132.85952148 -221.2402832 132.27299805 -220.91821289 131.66870117 C-209.98662054 111.34453982 -195.84897947 93.02687385 -179.86547852 76.44604492 C-179.33132324 75.88997559 -178.79716797 75.33390625 -178.24682617 74.76098633 C-145.49403368 40.84018935 -102.12086359 16.85728884 -56.36547852 5.75854492 C-55.1939624 5.47297729 -55.1939624 5.47297729 -53.9987793 5.18164062 C-51.29625906 4.55506035 -48.5840452 3.99893301 -45.86547852 3.44604492 C-44.69976318 3.183479 -43.53404785 2.92091309 -42.33300781 2.65039062 C-28.36094281 -0.25777237 -14.20333329 -0.04745675 0 0 Z M-58.86547852 21.44604492 C-60.5924698 21.89205468 -62.32166031 22.3296383 -64.05297852 22.75854492 C-93.4302025 30.85966619 -121.05280588 45.54212497 -144.86547852 64.44604492 C-145.72657227 65.11506836 -146.58766602 65.7840918 -147.47485352 66.47338867 C-188.56793149 99.11685446 -218.77991285 145.50847075 -231.39086914 196.54418945 C-231.81031653 198.22499971 -232.26497353 199.89693819 -232.72485352 201.56713867 C-237.31063688 219.18496967 -238.14617542 237.33579265 -238.11547852 255.44604492 C-238.11470306 256.23577698 -238.11392761 257.02550903 -238.11312866 257.83917236 C-238.83850504 265.74219412 -238.83850504 265.74219412 -236.86547852 272.44604492 C-236.8441512 273.98770483 -236.87570538 275.53012388 -236.92797852 277.07104492 C-237.03991006 298.9536622 -230.76512632 321.21323151 -222.86547852 341.44604492 C-222.56270996 342.22898926 -222.25994141 343.01193359 -221.94799805 343.81860352 C-215.14735836 361.20361626 -206.87994072 378.32039622 -195.86547852 393.44604492 C-195.1474707 394.43604492 -194.42946289 395.42604492 -193.68969727 396.44604492 C-181.93982899 412.35605655 -169.06724036 427.70701327 -153.86547852 440.44604492 C-153.35001465 440.8844873 -152.83455078 441.32292969 -152.3034668 441.7746582 C-128.88937062 461.59076338 -101.85024223 476.5124166 -72.86547852 486.44604492 C-72.12031982 486.70619385 -71.37516113 486.96634277 -70.60742188 487.234375 C-61.53121045 490.34726195 -52.24178562 492.44951022 -42.86547852 494.44604492 C-41.92623535 494.64939453 -40.98699219 494.85274414 -40.01928711 495.06225586 C-12.04567507 500.87755872 19.09610081 500.84716899 47.13452148 495.44604492 C48.07312012 495.27443848 49.01171875 495.10283203 49.97875977 494.92602539 C63.8623538 492.34662281 76.95709582 488.48344706 90.13452148 483.44604492 C91.426011 482.96900256 92.71766676 482.49240991 94.00952148 482.01635742 C120.85737392 471.77482751 145.80824189 456.34502116 166.76733398 436.66088867 C168.79799302 434.76091562 170.87293266 432.97358044 173.00952148 431.19604492 C203.82284429 404.21085387 226.14109291 364.61480716 237.484375 325.6640625 C238.00945648 323.87271244 238.57887647 322.09439477 239.16186523 320.32104492 C241.66666689 312.40888175 243.09655547 304.44702991 244.38452148 296.25854492 C244.55975342 295.16606445 244.73498535 294.07358398 244.91552734 292.94799805 C245.8468052 286.73635131 246.29092187 280.78119047 246.09838867 274.49951172 C246.13452148 272.44604492 246.13452148 272.44604492 247.13452148 271.44604492 C251.1205535 206.54244774 229.50919492 144.57237346 187.13452148 95.44604492 C159.07033284 63.91169296 124.75396016 40.99885908 85.13452148 26.44604492 C83.93698242 25.98842773 82.73944336 25.53081055 81.50561523 25.05932617 C38.87727299 9.68596498 -15.60860519 7.14825486 -58.86547852 21.44604492 Z " fill="#CACACA" transform="translate(250.865478515625,-0.446044921875)"/>
<path d="M0 0 C1.59229812 3.18459624 -0.07464736 6.01564393 -1.140625 9.2265625 C-1.37849731 9.95812057 -1.61636963 10.68967865 -1.8614502 11.44340515 C-2.64695625 13.84095225 -3.44668286 16.23336517 -4.25 18.625 C-4.52154907 19.43867035 -4.79309814 20.2523407 -5.07287598 21.09066772 C-9.80737676 35.209439 -15.29374408 48.68742028 -22 62 C-22.34981934 62.7130127 -22.69963867 63.42602539 -23.06005859 64.16064453 C-33.18206439 84.75161013 -47.15972591 103.48220755 -63 120 C-63.50402344 120.53125488 -64.00804687 121.06250977 -64.52734375 121.60986328 C-76.65367214 134.33721605 -90.14569598 144.64387384 -105 154 C-106.0725 154.67675781 -107.145 155.35351562 -108.25 156.05078125 C-132.67681018 170.70099553 -161.7367554 180.42018148 -190 184 C-191.34770491 184.20280192 -192.69535954 184.40593815 -194.04296875 184.609375 C-253.03370528 192.78895971 -320.25928543 178.78501937 -368.5625 143.375 C-378.91921246 135.27163083 -388.77222782 126.28471523 -397 116 C-396.505 115.01 -396.505 115.01 -396 114 C-395.47535156 114.53367187 -394.95070313 115.06734375 -394.41015625 115.6171875 C-382.94144378 126.6469975 -368.95433728 133.83367328 -354 139 C-352.79214844 139.42796875 -351.58429688 139.8559375 -350.33984375 140.296875 C-314.33941091 152.35077649 -271.50024922 152.55348072 -234.25 146.375 C-233.21633301 146.20605225 -232.18266602 146.03710449 -231.11767578 145.86303711 C-213.57588555 142.8576255 -195.71773745 138.9831213 -179.01416016 132.74267578 C-176.61743898 131.85893932 -174.20535814 131.02360298 -171.79296875 130.18359375 C-135.28391779 117.2352227 -101.2548781 98.16329191 -71 74 C-70.07058594 73.26394531 -69.14117187 72.52789062 -68.18359375 71.76953125 C-61.716912 66.57226924 -55.58913403 61.051923 -49.52050781 55.40283203 C-48.01359428 54.01254219 -46.49074754 52.64236717 -44.9609375 51.27734375 C-37.84876856 44.91068518 -31.29710449 38.17115741 -25 31 C-24.26499268 30.1661377 -24.26499268 30.1661377 -23.51513672 29.31542969 C-16.32643329 21.13079853 -9.540042 12.71178271 -3 4 C-2.41347656 3.21882813 -1.82695312 2.43765625 -1.22265625 1.6328125 C-0.81917969 1.09398437 -0.41570312 0.55515625 0 0 Z " fill="#DCDDDD" transform="translate(483,299)"/>
<path d="M0 0 C12.08934969 8.9003558 19.43734984 21.22421332 22 36 C22.61527518 43.50162435 22.61701987 50.88116356 20 58 C19.48759766 59.40185547 19.48759766 59.40185547 18.96484375 60.83203125 C13.22714448 75.49914031 4.61612675 86.09846221 -9.9375 92.78125 C-24.40316936 98.53799597 -38.43980187 98.62831188 -53 93 C-68.52173146 85.64187204 -77.22597978 73.79684776 -83 58 C-83.24878906 57.32324219 -83.49757812 56.64648438 -83.75390625 55.94921875 C-87.29922871 44.37113771 -85.44075686 30.83944338 -80.07226562 20.15332031 C-72.45595182 6.30613645 -61.40571652 -3.53194422 -46.25 -8.375 C-29.92961095 -12.57873657 -13.95713643 -9.38896357 0 0 Z " fill="#FDFCFC" transform="translate(287,212)"/>
</svg>
